<svg width="32" height="32" viewBox="0 0 32 32" fill="none" xmlns="http://www.w3.org/2000/svg">
<circle cx="16" cy="16" r="16" fill="#F7F9FB"/>
<path d="M8.97254 15.3654H22.2745C22.7228 15.3654 23.1371 15.1262 23.3612 14.7379C23.5854 14.3497 23.5854 13.8713 23.3612 13.483C23.1371 13.0948 22.7228 12.8556 22.2745 12.8556H12.5967L12.9882 10.9481C13.0155 10.8033 12.9779 10.6537 12.8851 10.5392C12.7923 10.4245 12.6539 10.3565 12.5065 10.3532C12.3592 10.3497 12.2178 10.4113 12.1198 10.5215L8.60612 14.5371C8.52354 14.6336 8.48052 14.7576 8.48578 14.8845C8.49105 15.0113 8.54427 15.1315 8.63458 15.2207C8.72489 15.3099 8.84556 15.3617 8.9725 15.3654L8.97254 15.3654Z" fill="#94A0AD"/>
<path d="M23.5294 16.8711V16.8259C23.525 16.7705 23.5115 16.7163 23.4893 16.6653V16.6402C23.4653 16.5957 23.4349 16.5551 23.3989 16.5197C23.361 16.4886 23.3186 16.4633 23.2734 16.4444H23.2432C23.1934 16.4368 23.1426 16.4368 23.0926 16.4444H9.72558C9.27729 16.4444 8.86296 16.6836 8.63885 17.0719C8.41465 17.4601 8.41465 17.9386 8.63885 18.3268C8.86294 18.715 9.27729 18.9542 9.72558 18.9542H19.4034L19.0119 20.7864C18.9846 20.9313 19.0222 21.0809 19.115 21.1954C19.2078 21.31 19.3461 21.378 19.4936 21.3814C19.6409 21.3848 19.7823 21.3232 19.8802 21.2131L23.394 17.1974C23.4333 17.1513 23.4639 17.0987 23.4844 17.0418V16.9916C23.5045 16.9536 23.5197 16.913 23.5295 16.8711L23.5294 16.8711Z" fill="#94A0AD"/>
</svg>
