<svg width="32" height="32" viewBox="0 0 32 32" fill="none" xmlns="http://www.w3.org/2000/svg">
<circle cx="16" cy="16" r="16" fill="#F7F9FB"/>
<path d="M12.4484 11.2963C11.2821 11.3487 10.3525 12.3108 10.3525 13.4901C10.3525 14.703 11.3357 15.6862 12.5487 15.6862C12.9203 15.6862 13.2704 15.5939 13.5772 15.4309C12.7564 14.7403 12.2349 13.7055 12.2349 12.5488C12.2349 12.1096 12.3101 11.688 12.4483 11.2961L12.4484 11.2963ZM18.4219 15.431C18.7287 15.5939 19.0788 15.6862 19.4505 15.6862C20.6634 15.6862 21.6466 14.7031 21.6466 13.4901C21.6466 12.3109 20.7171 11.3487 19.5508 11.2963C19.689 11.6882 19.7642 12.1098 19.7642 12.5489C19.7642 13.7056 19.2427 14.7403 18.4219 15.4311L18.4219 15.431Z" fill="#94A0AD"/>
<path d="M11.6295 16.3136H11.2942C9.7349 16.3136 8.4707 17.5778 8.4707 19.1371V19.7646C8.4707 19.9379 8.61115 20.0783 8.78447 20.0783H9.72565V19.7646C9.72565 18.3116 10.4855 17.036 11.6295 16.3135V16.3136ZM20.3707 16.3136H20.706C22.2653 16.3136 23.5295 17.5778 23.5295 19.1371V19.7646C23.5295 19.9379 23.3891 20.0783 23.2158 20.0783H22.2746V19.7646C22.2746 18.3116 21.5147 17.036 20.3707 16.3135V16.3136Z" fill="#94A0AD"/>
<path fill-rule="evenodd" clip-rule="evenodd" d="M15.9997 15.6861C17.7323 15.6861 19.137 14.2814 19.137 12.5487C19.137 10.816 17.7324 9.41162 15.9997 9.41162C14.2669 9.41162 12.8623 10.8161 12.8623 12.5487C12.8623 14.2814 14.2669 15.6861 15.9997 15.6861Z" fill="#94A0AD"/>
<path fill-rule="evenodd" clip-rule="evenodd" d="M10.3526 19.7649V21.6473C10.3526 21.8205 10.4931 21.9609 10.6664 21.9609H21.3329C21.5063 21.9609 21.6467 21.8205 21.6467 21.6473V19.7649C21.6467 17.8589 20.1016 16.3137 18.1958 16.3137H13.8034C11.8976 16.3137 10.3525 17.8588 10.3525 19.7649H10.3526Z" fill="#94A0AD"/>
</svg>
