<svg width="32" height="32" viewBox="0 0 32 32" fill="none" xmlns="http://www.w3.org/2000/svg">
<circle cx="16" cy="16" r="16" fill="#F7F9FB"/>
<path fill-rule="evenodd" clip-rule="evenodd" d="M15.9979 15.6845C17.7301 15.6845 19.1345 14.2802 19.1345 12.5479C19.1345 10.8157 17.7302 9.41162 15.9979 9.41162C14.2656 9.41162 12.8613 10.8158 12.8613 12.5479C12.8613 14.2802 14.2656 15.6845 15.9979 15.6845Z" fill="#94A0AD"/>
<path fill-rule="evenodd" clip-rule="evenodd" d="M10.3526 19.7621V21.6439C10.3526 21.8171 10.4931 21.9575 10.6663 21.9575H21.3302C21.5034 21.9575 21.6438 21.8171 21.6438 21.6439V19.7621C21.6438 17.8566 20.0992 16.3118 18.1938 16.3118H13.8026C11.8972 16.3118 10.3525 17.8564 10.3525 19.7621H10.3526Z" fill="#94A0AD"/>
</svg>
