<svg width="82" height="25" viewBox="0 0 82 25" fill="none" xmlns="http://www.w3.org/2000/svg">
<path d="M81.4666 3.46306C81.4666 8.27836 81.4666 13.0937 81.4666 17.909C81.4502 17.9997 81.4337 18.0904 81.4172 18.1811C81.1945 19.1458 80.7163 19.9621 79.9165 20.564C79.2404 21.0752 78.4818 21.3803 77.6243 21.3803C73.0151 21.3803 68.4142 21.3803 63.805 21.3803C63.6319 21.3803 63.4587 21.372 63.2938 21.3308C62.3126 21.1082 61.4881 20.6217 60.8779 19.8137C60.375 19.1458 60.0781 18.3872 60.0781 17.5379C60.0781 13.0277 60.0781 8.52572 60.0781 4.0155C60.0781 3.28166 60.2513 2.5973 60.6223 1.9624C61.117 1.12137 61.8344 0.544195 62.7496 0.21438C63.0052 0.123681 63.2773 0.0742084 63.5494 0C68.3647 0 73.18 0 77.9953 0C78.0118 0.0164908 78.0201 0.0329815 78.0366 0.0329815C78.5725 0.0742084 79.0507 0.272098 79.5042 0.544195C80.3453 1.03892 80.9225 1.75627 81.244 2.6715C81.343 2.92711 81.4007 3.19921 81.4666 3.46306Z" fill="#11E78D"/>
<path d="M73.04 10.1665C73.5595 10.3644 73.9965 10.6448 74.351 11.0323C74.8622 11.5765 75.1508 12.2114 75.2498 12.9617C75.3734 13.9347 75.1426 14.8087 74.5901 15.6002C74.0459 16.3835 73.2709 16.837 72.3886 17.1504C71.3744 17.5132 70.3273 17.5379 69.2884 17.4637C68.3484 17.3977 67.4414 17.1586 66.6004 16.7134C66.2458 16.5237 66.2128 16.4907 66.32 16.1032C66.4684 15.5673 66.6333 15.0313 66.8065 14.4954C66.8889 14.2315 67.0044 14.1985 67.2765 14.2892C67.9031 14.5118 68.5298 14.7674 69.1729 14.9159C70.0552 15.122 70.9292 15.056 71.6795 14.4624C71.9599 14.2397 72.133 13.9264 72.1825 13.5554C72.3391 12.4175 71.6465 11.8074 70.5994 11.5765C69.9892 11.4446 69.3461 11.4775 68.7112 11.4528C68.3319 11.4363 68.2329 11.3539 68.2329 10.9663C68.2329 10.5046 68.2329 10.0346 68.2329 9.57286C68.2329 9.19357 68.3319 9.11112 68.7194 9.09462C69.3131 9.06989 69.915 9.07813 70.5004 8.97094C70.9951 8.88025 71.4486 8.64113 71.6878 8.14641C71.9764 7.56923 71.7455 6.76943 71.0281 6.51382C70.3767 6.28295 69.7336 6.30769 69.0987 6.51382C68.6535 6.65399 68.2247 6.86013 67.7959 7.04977C67.4414 7.20643 67.3095 7.16521 67.194 6.79416C67.0456 6.34891 66.9054 5.89542 66.757 5.45017C66.6251 5.04614 66.6746 4.92246 67.0621 4.72457C67.8537 4.32055 68.6864 4.04845 69.5769 3.94126C70.6241 3.81758 71.6465 3.82583 72.6442 4.20511C73.7903 4.63387 74.5654 5.42543 74.788 6.62101C75.0106 7.84133 74.6808 8.92972 73.6502 9.72952C73.5512 9.80373 73.4605 9.89443 73.3533 9.96864C73.2626 10.0428 73.1637 10.1006 73.04 10.1665Z" fill="white"/>
<path d="M21.001 10.5871C21.001 11.5106 20.902 12.4011 20.7124 13.2421C20.5228 14.0914 20.2507 14.8747 19.8879 15.6168C19.5333 16.3506 19.0963 17.0267 18.5768 17.6451C18.0574 18.2635 17.472 18.7995 16.8123 19.2695L22.0729 25H18.8902C18.4284 25 18.0162 24.934 17.6534 24.8104C17.2823 24.6867 16.9525 24.4558 16.6474 24.126L13.6131 20.7701C13.1266 20.902 12.6237 21.001 12.1125 21.067C11.6013 21.1329 11.0653 21.1659 10.5129 21.1659C8.94624 21.1659 7.51979 20.902 6.22526 20.3743C4.93074 19.8466 3.82586 19.1046 2.90237 18.1646C1.97889 17.2164 1.26979 16.1032 0.758575 14.8087C0.255607 13.5142 0 12.1042 0 10.5871C0 9.06992 0.255607 7.65996 0.758575 6.36544C1.26154 5.07091 1.97889 3.94954 2.90237 3.00956C3.82586 2.06959 4.93074 1.32751 6.22526 0.799802C7.51979 0.272098 8.94624 0 10.5129 0C12.0795 0 13.5059 0.263852 14.7922 0.799802C16.0785 1.33575 17.1834 2.06959 18.0986 3.00956C19.0139 3.94954 19.723 5.07091 20.2342 6.36544C20.7454 7.65996 21.001 9.06992 21.001 10.5871ZM17.0432 10.5871C17.0432 9.44921 16.8948 8.43503 16.5897 7.52803C16.2929 6.62929 15.8559 5.86247 15.2952 5.22757C14.7345 4.60092 14.0501 4.11445 13.2421 3.78463C12.434 3.45482 11.527 3.28166 10.5129 3.28166C9.49868 3.28166 8.59169 3.44657 7.7754 3.78463C6.96735 4.11445 6.27474 4.60092 5.7058 5.22757C5.13687 5.86247 4.69987 6.62929 4.39479 7.52803C4.08971 8.42678 3.93305 9.44921 3.93305 10.5871C3.93305 11.7249 4.08971 12.7474 4.39479 13.6461C4.69987 14.5449 5.13687 15.3117 5.7058 15.9383C6.27474 16.565 6.96735 17.0432 7.7754 17.3813C8.58344 17.7193 9.49868 17.8842 10.5129 17.8842C11.527 17.8842 12.434 17.7193 13.2421 17.3813C14.0501 17.0432 14.7345 16.565 15.2952 15.9383C15.8559 15.3117 16.2929 14.5449 16.5897 13.6461C16.8948 12.7391 17.0432 11.7249 17.0432 10.5871Z" fill="#1A1B1C"/>
<path d="M22.2295 20.9434V0.230957H29.3782C30.7305 0.230957 31.8931 0.362883 32.8495 0.61849C33.806 0.874097 34.5976 1.24514 35.216 1.72337C35.8344 2.2016 36.2796 2.77878 36.5682 3.4549C36.8568 4.13102 36.997 4.89784 36.997 5.74712C36.997 6.23359 36.9228 6.70358 36.7826 7.14059C36.6424 7.58584 36.4198 7.99811 36.1147 8.38564C35.8179 8.77317 35.4304 9.12772 34.9686 9.44105C34.5069 9.75437 33.9544 10.0265 33.3113 10.2409C36.1559 10.884 37.5824 12.4176 37.5824 14.85C37.5824 15.7323 37.4175 16.5403 37.0794 17.2824C36.7414 18.0245 36.2549 18.6676 35.62 19.2118C34.9769 19.7478 34.1935 20.1765 33.2536 20.4816C32.3136 20.7867 31.2499 20.9434 30.0461 20.9434H22.2295ZM26.0883 9.19369H29.1721C30.4831 9.19369 31.4726 8.95457 32.1487 8.47634C32.8248 7.99811 33.1629 7.23953 33.1629 6.20061C33.1629 5.12047 32.8578 4.35365 32.2476 3.89191C31.6375 3.43016 30.681 3.20754 29.3782 3.20754H26.0801V9.19369H26.0883ZM26.0883 11.8652V17.942H29.9966C30.714 17.942 31.3159 17.8596 31.7941 17.6864C32.2724 17.5133 32.6599 17.2824 32.9567 17.0021C33.2453 16.7135 33.4597 16.3837 33.5834 15.9961C33.7153 15.6168 33.773 15.2046 33.773 14.7758C33.773 14.3306 33.6988 13.9265 33.5586 13.5637C33.4185 13.2009 33.1876 12.9041 32.8825 12.6485C32.5774 12.3929 32.1817 12.2033 31.7117 12.0713C31.2417 11.9394 30.6563 11.8734 29.9802 11.8734H26.0883V11.8652Z" fill="#1A1B1C"/>
<path d="M57.4868 10.5872C57.4868 12.1043 57.2312 13.4978 56.7282 14.7676C56.2253 16.0374 55.5079 17.134 54.5927 18.0492C53.6774 18.9645 52.5726 19.6818 51.2863 20.1848C50 20.6877 48.5653 20.9434 47.0069 20.9434H39.0996V0.230957H46.9987C48.5653 0.230957 49.9918 0.486564 51.278 0.997778C52.5643 1.50899 53.6692 2.21809 54.5844 3.13333C55.4997 4.04857 56.2088 5.13696 56.72 6.40675C57.2312 7.67654 57.4868 9.07001 57.4868 10.5872ZM53.5455 10.5872C53.5455 9.44929 53.3889 8.43511 53.0838 7.52812C52.7787 6.62113 52.3417 5.86255 51.781 5.2359C51.2203 4.60925 50.536 4.13102 49.7279 3.79296C48.9199 3.46315 48.0129 3.29824 46.9987 3.29824H42.9749V17.8843H46.9987C48.0129 17.8843 48.9199 17.7194 49.7279 17.3813C50.536 17.0433 51.2203 16.5651 51.781 15.9384C52.3417 15.3118 52.7787 14.5449 53.0838 13.6462C53.3971 12.7392 53.5455 11.725 53.5455 10.5872Z" fill="#1A1B1C"/>
</svg>
