<svg width="18" height="18" viewBox="0 0 18 18" fill="none" xmlns="http://www.w3.org/2000/svg">
<path d="M10.8726 14.3539H3.78923C2.85026 14.3528 1.95008 13.9793 1.28613 13.3154C0.622183 12.6514 0.248683 11.7512 0.247559 10.8123L0.247559 3.72892C0.248683 2.78996 0.622183 1.88978 1.28613 1.22583C1.95008 0.561881 2.85026 0.188381 3.78923 0.187256L10.8726 0.187256C11.8115 0.188381 12.7117 0.561881 13.3757 1.22583C14.0396 1.88978 14.4131 2.78996 14.4142 3.72892V10.8123C14.4131 11.7512 14.0396 12.6514 13.3757 13.3154C12.7117 13.9793 11.8115 14.3528 10.8726 14.3539ZM3.78923 1.60392C3.22564 1.60392 2.68514 1.82781 2.28662 2.22632C1.88811 2.62484 1.66423 3.16534 1.66423 3.72892V10.8123C1.66423 11.3758 1.88811 11.9163 2.28662 12.3149C2.68514 12.7134 3.22564 12.9373 3.78923 12.9373H10.8726C11.4361 12.9373 11.9766 12.7134 12.3752 12.3149C12.7737 11.9163 12.9976 11.3758 12.9976 10.8123V3.72892C12.9976 3.16534 12.7737 2.62484 12.3752 2.22632C11.9766 1.82781 11.4361 1.60392 10.8726 1.60392H3.78923ZM17.2476 13.6456V4.43726C17.2476 4.24939 17.1729 4.06923 17.0401 3.93639C16.9073 3.80355 16.7271 3.72892 16.5392 3.72892C16.3514 3.72892 16.1712 3.80355 16.0384 3.93639C15.9055 4.06923 15.8309 4.24939 15.8309 4.43726V13.6456C15.8309 14.2092 15.607 14.7497 15.2085 15.1482C14.81 15.5467 14.2695 15.7706 13.7059 15.7706H4.49756C4.3097 15.7706 4.12953 15.8452 3.99669 15.9781C3.86385 16.1109 3.78923 16.2911 3.78923 16.4789C3.78923 16.6668 3.86385 16.847 3.99669 16.9798C4.12953 17.1126 4.3097 17.1873 4.49756 17.1873H13.7059C14.6449 17.1861 15.545 16.8126 16.209 16.1487C16.8729 15.4847 17.2464 14.5846 17.2476 13.6456Z" fill="#444B53"/>
</svg>
