<svg width="25" height="26" viewBox="0 0 25 26" fill="none" xmlns="http://www.w3.org/2000/svg">
<rect opacity="0.09" y="0.384766" width="25" height="25" rx="6.77044" fill="#FF006B"/>
<path d="M15.5396 14.5384C15.5396 15.0869 15.3233 15.613 14.9381 16.0011C14.5529 16.3891 14.0303 16.6072 13.4853 16.6072H12.9134V17.1839C12.9134 17.2939 12.87 17.3995 12.7926 17.4774C12.7152 17.5554 12.6102 17.5993 12.5004 17.5993C12.3907 17.5993 12.2856 17.5554 12.2083 17.4774C12.1309 17.3995 12.0875 17.2939 12.0875 17.1839V16.6072H11.5156C10.9706 16.6072 10.448 16.3891 10.0627 16.0011C9.67756 15.613 9.46127 15.0869 9.46127 14.5384C9.46127 14.4285 9.50462 14.3229 9.58199 14.245C9.65938 14.167 9.76447 14.1231 9.87418 14.1231C9.98389 14.1231 10.089 14.167 10.1664 14.245C10.2437 14.3229 10.2871 14.4284 10.2871 14.5383M15.5396 14.5384H10.2025M15.5396 14.5384C15.5396 13.99 15.3233 13.4638 14.9381 13.0758C14.5529 12.6878 14.0303 12.4697 13.4853 12.4697H11.6797C11.3541 12.4697 11.0417 12.3394 10.8113 12.1073C10.5808 11.8751 10.4512 11.5601 10.4512 11.2316C10.4512 10.903 10.5808 10.588 10.8113 10.3559C11.0417 10.1237 11.3541 9.99344 11.6797 9.99344H13.1569M15.5396 14.5384L13.157 9.90881M10.2871 14.5383C10.2871 14.5384 10.2871 14.5384 10.2871 14.5384H10.2025M10.2871 14.5383C10.2871 14.5383 10.2871 14.5382 10.2871 14.5382L10.2025 14.5384M10.2871 14.5383C10.2881 14.8666 10.4181 15.181 10.6483 15.4129C10.8786 15.6449 11.1904 15.7755 11.5157 15.7766H11.5156V15.8612C11.1677 15.8601 10.8343 15.7204 10.5883 15.4726C10.3422 15.2247 10.2035 14.8889 10.2025 14.5384M14.3855 11.2317C14.3855 11.3416 14.4289 11.4471 14.5062 11.525C14.5836 11.603 14.6887 11.6469 14.7984 11.6469C14.9081 11.6469 15.0132 11.603 15.0906 11.525C15.168 11.4471 15.2113 11.3415 15.2113 11.2316C15.2113 10.6831 14.995 10.157 14.6099 9.76895C14.2246 9.38091 13.7021 9.1628 13.157 9.1628H12.9134V8.58606C12.9134 8.47611 12.87 8.37054 12.7926 8.2926C12.7152 8.21465 12.6102 8.17074 12.5004 8.17074C12.3907 8.17074 12.2856 8.21465 12.2083 8.2926C12.1309 8.37054 12.0875 8.47611 12.0875 8.58606V9.1628H11.6797C11.1347 9.1628 10.6121 9.38091 10.2269 9.76895C9.8417 10.157 9.62541 10.6831 9.62541 11.2316C9.62541 11.78 9.8417 12.3062 10.2269 12.6942C10.6121 13.0822 11.1347 13.3003 11.6797 13.3003H13.4853C13.8109 13.3003 14.1233 13.4306 14.3538 13.6627C14.5842 13.8949 14.7138 14.2099 14.7138 14.5384C14.7138 14.867 14.5842 15.182 14.3538 15.4141C14.1233 15.6463 13.8109 15.7766 13.4853 15.7766L11.5159 15.7766L14.4701 11.2316M14.3855 11.2317C14.3855 11.2316 14.3855 11.2316 14.3855 11.2316H14.4701M14.3855 11.2317C14.3855 11.2317 14.3855 11.2318 14.3855 11.2318L14.4701 11.2316M14.3855 11.2317C14.3845 10.9034 14.2545 10.589 14.0243 10.3571C13.794 10.1251 13.4822 9.9945 13.1569 9.99344M14.4701 11.2316C14.4691 10.8811 14.3304 10.5453 14.0843 10.2974C13.8383 10.0496 13.5049 9.9099 13.157 9.90881M13.1569 9.99344H13.157V9.90881M13.1569 9.99344C13.1568 9.99344 13.1568 9.99344 13.1567 9.99344L13.157 9.90881" fill="#FF006B" stroke="#FF006B" stroke-width="0.169261"/>
</svg>
