<svg width="40" height="40" viewBox="0 0 40 40" fill="none" xmlns="http://www.w3.org/2000/svg">
<rect opacity="0.09" width="40" height="40" rx="8" fill="#11E78D"/>
<path d="M20 11C18.6361 11 17.328 11.5418 16.3634 12.5063C15.399 13.4708 14.8571 14.7789 14.8571 16.1429C14.8571 17.5068 15.399 18.8149 16.3634 19.7794C17.328 20.7439 18.6361 21.2857 20 21.2857C21.3639 21.2857 22.672 20.7439 23.6366 19.7794C24.601 18.8149 25.1429 17.5068 25.1429 16.1429C25.1429 14.7789 24.601 13.4708 23.6366 12.5063C22.672 11.5418 21.3639 11 20 11ZM15.8365 21.026C12.9634 22.5291 11 25.533 11 29H29C29 25.5329 27.0366 22.5288 24.1635 21.026C23.0394 21.9867 21.5855 22.5716 20 22.5716C18.4145 22.5716 16.9606 21.9867 15.8365 21.026Z" fill="#11E78D"/>
</svg>
