<svg width="120" height="27" viewBox="0 0 120 27" fill="none" xmlns="http://www.w3.org/2000/svg">
<path d="M10.4784 0.00509644C12.8069 0.00509644 14.6799 0.874446 16.1023 2.60806C17.5248 4.34168 18.2334 6.91922 18.2334 10.3407C18.2334 13.7622 17.5045 16.355 16.0466 18.114C14.5888 19.873 12.6956 20.7526 10.367 20.7526C8.89399 20.7526 7.70948 20.4831 6.79831 19.9391C5.88714 19.4002 5.16834 18.7698 4.6267 18.0581H4.32804C4.40397 18.5258 4.46977 19.0342 4.53052 19.5883C4.59126 20.1425 4.62164 20.6509 4.62164 21.1186V26.8778H0V0.376222H3.75097L4.41409 3.03511H4.63682C5.1734 2.19626 5.90739 1.48452 6.84387 0.894782C7.77528 0.305048 8.99017 0.0101805 10.4835 0.0101805L10.4784 0.00509644ZM9.15722 3.77228C7.51712 3.77228 6.35791 4.26542 5.68466 5.2517C5.00635 6.23798 4.66213 7.72248 4.63682 9.72046V10.3102C4.63682 12.4505 4.96079 14.0926 5.60873 15.2416C6.25667 16.3906 7.4665 16.9549 9.23315 16.9549C10.6758 16.9549 11.749 16.3601 12.4475 15.1653C13.1461 13.9706 13.4954 12.3387 13.4954 10.2746C13.4954 8.21054 13.1461 6.6091 12.4475 5.47539C11.749 4.34168 10.6505 3.77736 9.15722 3.77736V3.77228Z" fill="#FF006B"/>
<path d="M29.1472 0.00508403C31.8199 0.00508403 33.9308 0.808343 35.4899 2.40469C37.0439 4.00612 37.8235 6.23288 37.8235 9.09004V11.4541H24.6622C24.7078 13.2741 25.214 14.6823 26.1707 15.6839C27.1274 16.6803 28.4486 17.1785 30.1393 17.1785C31.4149 17.1785 32.564 17.0515 33.5967 16.7922C34.6293 16.5329 35.6772 16.1567 36.7605 15.6635V19.3901C35.7784 19.8578 34.7609 20.2035 33.708 20.4272C32.6551 20.6458 31.3947 20.7576 29.9216 20.7576C27.9879 20.7576 26.2669 20.3814 24.7584 19.629C23.2499 18.8817 22.0755 17.7429 21.2301 16.2126C20.3848 14.6874 19.9596 12.7911 19.9596 10.5237C19.9596 7.10223 20.8049 4.49418 22.4956 2.69447C24.1864 0.899853 26.4086 0 29.1472 0V0.00508403ZM29.1472 3.44181C27.8968 3.44181 26.8844 3.84344 26.115 4.64161C25.3456 5.44487 24.895 6.62942 24.7736 8.20544H33.3385C33.3132 6.8277 32.9639 5.6889 32.2907 4.78905C31.6124 3.88919 30.5696 3.44181 29.1472 3.44181Z" fill="#FF006B"/>
<path d="M48.4475 20.7576C45.5824 20.7576 43.3248 19.934 41.6847 18.2818C40.0446 16.6346 39.2245 14.0367 39.2245 10.4932C39.2245 8.03258 39.6345 6.02952 40.4597 4.49418C41.2797 2.95375 42.4136 1.82512 43.8563 1.09812C45.304 0.371121 46.9593 0.0101624 48.8221 0.0101624C50.0725 0.0101624 51.1912 0.132176 52.1681 0.381288C53.1502 0.625316 53.9854 0.920183 54.6688 1.26589L53.3071 4.92122C52.5478 4.62636 51.7885 4.37216 51.0292 4.16372C50.2699 3.95528 49.5308 3.84852 48.8221 3.84852C45.5875 3.84852 43.9676 6.04985 43.9676 10.4576C43.9676 12.5979 44.3777 14.2146 45.2028 15.2975C46.0228 16.3804 47.2073 16.9193 48.7513 16.9193C49.8548 16.9193 50.8318 16.782 51.6923 16.5126C52.5478 16.2431 53.3729 15.872 54.1525 15.4043V19.4307C53.3931 19.873 52.5782 20.2035 51.7075 20.4272C50.8368 20.6458 49.7535 20.7576 48.4526 20.7576H48.4475Z" fill="#FF006B"/>
<path d="M73.8538 0.37619V20.3865H70.2142L69.5865 17.8038H69.3688C68.7057 18.8359 67.8199 19.5883 66.7012 20.056C65.5824 20.5237 64.403 20.7576 63.1527 20.7576C60.9254 20.7576 59.1739 20.178 57.9135 19.024C56.653 17.8699 56.0203 16.0092 56.0203 13.4469V0.37619H60.652V12.5217C60.652 15.5008 61.877 16.9904 64.3271 16.9904C66.1899 16.9904 67.4706 16.4058 68.1691 15.2365C68.8677 14.0672 69.217 12.3742 69.217 10.1576V0.37619H73.8487H73.8538Z" fill="#FF006B"/>
<path d="M86.8525 0.00509644C89.0798 0.00509644 90.8313 0.584663 92.0917 1.73871C93.3522 2.89276 93.9849 4.76364 93.9849 7.35135V20.3865H89.3481V8.27663C89.3481 5.27203 88.1231 3.77228 85.6731 3.77228C83.8103 3.77228 82.5346 4.36201 81.8512 5.54148C81.1628 6.72603 80.8237 8.40881 80.8237 10.6V20.3865H76.1868V0.376222H79.7556L80.4187 2.99952H80.6768C81.3147 1.96749 82.1904 1.20998 83.3091 0.727012C84.4228 0.249124 85.6073 0.00509644 86.8576 0.00509644H86.8525Z" fill="#FF006B"/>
<path d="M101.005 0.37619V20.3865H96.3684V0.37619H101.005Z" fill="#FF006B"/>
<path d="M111.964 0.00508403C114.536 0.00508403 116.49 0.569399 117.826 1.70311C119.163 2.83682 119.831 4.58061 119.831 6.94463V20.3865H116.561L115.64 17.6158H115.493C114.632 18.6986 113.726 19.4917 112.774 19.995C111.818 20.4983 110.517 20.7525 108.877 20.7525C107.09 20.7525 105.607 20.2492 104.427 19.2375C103.253 18.2309 102.666 16.6651 102.666 14.5502C102.666 12.4353 103.42 10.9304 104.923 9.89838C106.432 8.86635 108.715 8.28678 111.782 8.16477L115.24 8.05292V7.05647C115.24 5.80075 114.936 4.89581 114.323 4.34166C113.711 3.78752 112.85 3.51298 111.752 3.51298C110.745 3.51298 109.783 3.66042 108.867 3.95528C107.95 4.25015 107.034 4.59586 106.128 4.98732L104.655 1.7387C105.637 1.22014 106.761 0.803259 108.021 0.482972C109.282 0.162686 110.598 0 111.975 0L111.964 0.00508403ZM112.81 11.0067C110.775 11.0778 109.368 11.4286 108.583 12.059C107.798 12.6894 107.409 13.5283 107.409 14.5908C107.409 15.5517 107.682 16.2329 108.234 16.6397C108.786 17.0464 109.514 17.2497 110.421 17.2497C111.772 17.2497 112.911 16.8633 113.842 16.0855C114.774 15.3077 115.24 14.1587 115.24 12.6335V10.9355L112.815 11.0067H112.81Z" fill="#FF006B"/>
</svg>
