<svg width="124" height="124" viewBox="0 0 124 124" fill="none" xmlns="http://www.w3.org/2000/svg">
<circle cx="61.5" cy="61.5" r="55.5" fill="#F0F1F4"/>
<path d="M16.1139 30.1128C9.0404 40.3615 5.60544 52.685 6.3576 65.1149C7.10976 77.5449 12.0056 89.3642 20.2633 98.6852C28.5209 108.006 39.664 114.291 51.9127 116.536C64.1613 118.781 76.809 116.857 87.8356 111.07C98.8622 105.283 107.632 95.9687 112.743 84.6135C117.855 73.2582 119.014 60.5176 116.035 48.4264C113.056 36.3353 106.111 25.5913 96.3091 17.9103C86.5074 10.2293 74.4145 6.05451 61.9618 6.05273C58.5471 6.05293 55.1394 6.36122 51.7802 6.97387" stroke="#303441" stroke-linecap="round" stroke-linejoin="round"/>
<path d="M25.6093 19.5869C23.7379 21.2065 21.9738 22.946 20.3281 24.7944" stroke="#303441" stroke-linecap="round" stroke-linejoin="round"/>
<path d="M105.481 80.5196C115.709 56.5058 104.533 28.7475 80.5192 18.5196C56.5054 8.2917 28.7471 19.4674 18.5192 43.4812C8.29133 67.4949 19.467 95.2533 43.4808 105.481C67.4945 115.709 95.2529 104.533 105.481 80.5196Z" fill="#4FA5B5"/>
<path d="M40.3008 62.8044L56.7675 77.4999L83.7008 47.5332" stroke="white" stroke-width="8" stroke-linecap="round" stroke-linejoin="round"/>
</svg>
