<svg width="4" height="13" viewBox="0 0 4 13" fill="none" xmlns="http://www.w3.org/2000/svg">
<path d="M3.37037 6.5C3.37037 6.8333 3.27154 7.15911 3.08637 7.43624C2.9012 7.71337 2.63801 7.92936 2.33008 8.05691C2.02215 8.18445 1.68332 8.21783 1.35642 8.1528C1.02953 8.08778 0.729258 7.92728 0.49358 7.69161C0.257903 7.45593 0.0974044 7.15566 0.0323811 6.82876C-0.0326421 6.50187 0.000730162 6.16303 0.128278 5.85511C0.255826 5.54718 0.47182 5.28399 0.748947 5.09882C1.02607 4.91365 1.35189 4.81482 1.68519 4.81482C2.13164 4.8164 2.55935 4.99446 2.87504 5.31015C3.19073 5.62584 3.36879 6.05355 3.37037 6.5ZM1.68519 3.37037C2.01848 3.37037 2.3443 3.27154 2.62143 3.08637C2.89855 2.9012 3.11455 2.63801 3.24209 2.33008C3.36964 2.02215 3.40301 1.68332 3.33799 1.35642C3.27297 1.02953 3.11247 0.729257 2.87679 0.49358C2.64112 0.257903 2.34084 0.0974043 2.01395 0.0323811C1.68706 -0.0326421 1.34822 0.000730162 1.04029 0.128278C0.732367 0.255825 0.469176 0.47182 0.284006 0.748947C0.0988352 1.02607 9.07741e-07 1.35189 9.07741e-07 1.68519C0.00158689 2.13164 0.179642 2.55935 0.495333 2.87504C0.811023 3.19073 1.23874 3.36878 1.68519 3.37037ZM1.68519 9.62963C1.35189 9.62963 1.02607 9.72846 0.748947 9.91363C0.47182 10.0988 0.255826 10.362 0.128278 10.6699C0.000730162 10.9778 -0.0326421 11.3167 0.0323811 11.6436C0.0974044 11.9705 0.257903 12.2707 0.49358 12.5064C0.729258 12.7421 1.02953 12.9026 1.35642 12.9676C1.68332 13.0326 2.02215 12.9993 2.33008 12.8717C2.63801 12.7442 2.9012 12.5282 3.08637 12.2511C3.27154 11.9739 3.37037 11.6481 3.37037 11.3148C3.36879 10.8684 3.19073 10.4406 2.87504 10.125C2.55935 9.80927 2.13164 9.63122 1.68519 9.62963Z" fill="#94A0AD"/>
</svg>
