<svg width="31" height="31" viewBox="0 0 31 31" fill="none" xmlns="http://www.w3.org/2000/svg">
<rect width="31" height="31" rx="15.5" fill="#F7F9FB"/>
<path d="M17.3704 15.5C17.3704 15.8333 17.2715 16.1591 17.0864 16.4362C16.9012 16.7134 16.638 16.9294 16.3301 17.0569C16.0222 17.1845 15.6833 17.2178 15.3564 17.1528C15.0295 17.0878 14.7293 16.9273 14.4936 16.6916C14.2579 16.4559 14.0974 16.1557 14.0324 15.8288C13.9674 15.5019 14.0007 15.163 14.1283 14.8551C14.2558 14.5472 14.4718 14.284 14.7489 14.0988C15.0261 13.9136 15.3519 13.8148 15.6852 13.8148C16.1316 13.8164 16.5594 13.9945 16.875 14.3101C17.1907 14.6258 17.3688 15.0535 17.3704 15.5ZM15.6852 12.3704C16.0185 12.3704 16.3443 12.2715 16.6214 12.0864C16.8986 11.9012 17.1145 11.638 17.2421 11.3301C17.3696 11.0222 17.403 10.6833 17.338 10.3564C17.273 10.0295 17.1125 9.72926 16.8768 9.49358C16.6411 9.2579 16.3408 9.0974 16.0139 9.03238C15.6871 8.96736 15.3482 9.00073 15.0403 9.12828C14.7324 9.25583 14.4692 9.47182 14.284 9.74895C14.0988 10.0261 14 10.3519 14 10.6852C14.0016 11.1316 14.1796 11.5593 14.4953 11.875C14.811 12.1907 15.2387 12.3688 15.6852 12.3704ZM15.6852 18.6296C15.3519 18.6296 15.0261 18.7285 14.7489 18.9136C14.4718 19.0988 14.2558 19.362 14.1283 19.6699C14.0007 19.9778 13.9674 20.3167 14.0324 20.6436C14.0974 20.9705 14.2579 21.2707 14.4936 21.5064C14.7293 21.7421 15.0295 21.9026 15.3564 21.9676C15.6833 22.0326 16.0222 21.9993 16.3301 21.8717C16.638 21.7442 16.9012 21.5282 17.0864 21.2511C17.2715 20.9739 17.3704 20.6481 17.3704 20.3148C17.3688 19.8684 17.1907 19.4406 16.875 19.125C16.5594 18.8093 16.1316 18.6312 15.6852 18.6296Z" fill="#94A0AD"/>
</svg>
