<svg width="26" height="25" viewBox="0 0 26 25" fill="none" xmlns="http://www.w3.org/2000/svg">
<rect opacity="0.09" x="0.373047" y="0.384766" width="25.365" height="24" rx="6.77044" fill="#FF006B"/>
<ellipse opacity="0.01" cx="13.3606" cy="11.5679" rx="9.99049" ry="9.62791" fill="#FF006B"/>
<path d="M10.5018 8.07285C9.50904 8.11957 8.71777 8.9772 8.71777 10.0283C8.71777 11.1094 9.5547 11.9858 10.5872 11.9858C10.9036 11.9858 11.2016 11.9035 11.4628 11.7583C10.7641 11.1426 10.3201 10.2203 10.3201 9.18927C10.3201 8.79781 10.3841 8.42208 10.5018 8.07275L10.5018 8.07285ZM15.5868 11.7583C15.848 11.9035 16.146 11.9858 16.4623 11.9858C17.4948 11.9858 18.3318 11.1095 18.3318 10.0283C18.3318 8.97725 17.5405 8.11962 16.5477 8.07291C16.6654 8.42223 16.7294 8.79797 16.7294 9.18943C16.7294 10.2204 16.2854 11.1427 15.5868 11.7584L15.5868 11.7583Z" fill="#FF006B"/>
<path d="M9.80613 12.5455H9.52071C8.19333 12.5455 7.11719 13.6723 7.11719 15.0622V15.6216C7.11719 15.776 7.23674 15.9012 7.38428 15.9012H8.18545V15.6216C8.18545 14.3264 8.8323 13.1895 9.80613 12.5454V12.5455ZM17.247 12.5455H17.5324C18.8598 12.5455 19.9359 13.6723 19.9359 15.0622V15.6216C19.9359 15.776 19.8164 15.9012 19.6688 15.9012H18.8677V15.6216C18.8677 14.3264 18.2208 13.1895 17.247 12.5454V12.5455Z" fill="#FF006B"/>
<path fill-rule="evenodd" clip-rule="evenodd" d="M13.5261 11.9852C15.0011 11.9852 16.1968 10.7333 16.1968 9.18879C16.1968 7.64438 15.0011 6.39258 13.5261 6.39258C12.0511 6.39258 10.8555 7.64447 10.8555 9.18879C10.8555 10.7332 12.0511 11.9852 13.5261 11.9852Z" fill="#FF006B"/>
<path fill-rule="evenodd" clip-rule="evenodd" d="M8.71786 15.6216V17.2994C8.71786 17.4538 8.83742 17.579 8.98495 17.579H18.0648C18.2123 17.579 18.3319 17.4538 18.3319 17.2994V15.6216C18.3319 13.9227 17.0166 12.5454 15.3943 12.5454H11.6553C10.033 12.5454 8.71777 13.9226 8.71777 15.6216H8.71786Z" fill="#FF006B"/>
</svg>
