<svg width="15" height="14" viewBox="0 0 15 14" fill="none" xmlns="http://www.w3.org/2000/svg">
<g clip-path="url(#clip0_1762_4177)">
<path d="M0.341797 11.7305C0.341797 8.57695 0.341797 5.42343 0.341797 2.26991C0.349468 2.2542 0.360792 2.23886 0.363714 2.22205C0.548549 1.18427 1.33611 0.523467 2.39106 0.523467C5.43427 0.523102 8.47784 0.523102 11.521 0.523467C12.3451 0.523467 12.888 1.06884 12.8887 1.89549C12.889 2.3784 12.8887 2.86131 12.8887 3.34422C12.8887 3.39243 12.8887 3.44029 12.8887 3.498C12.9395 3.498 12.9709 3.49764 13.0019 3.498C13.8118 3.51115 14.3411 4.04593 14.3411 4.85285C14.3414 7.27653 14.3418 9.70021 14.3392 12.1243C14.3392 12.255 14.3272 12.3895 14.295 12.5158C14.1427 13.1113 13.6393 13.4769 12.9833 13.4769C9.50247 13.4773 6.02165 13.4773 2.54119 13.4769C2.45023 13.4769 2.35891 13.478 2.26796 13.4755C1.39967 13.4499 0.654483 12.868 0.417777 12.0315C0.38965 11.9321 0.367002 11.8309 0.341797 11.7305ZM1.22031 4.05178C1.22031 4.11972 1.22031 4.16757 1.22031 4.21579C1.22031 5.10417 1.22031 5.99291 1.22031 6.88129C1.22031 8.40308 1.21885 9.92523 1.22104 11.447C1.22177 11.9413 1.44095 12.3102 1.89902 12.5034C2.0612 12.5717 2.25298 12.5944 2.43124 12.5947C5.93544 12.5999 9.43928 12.5984 12.9435 12.5984C12.9709 12.5984 12.9983 12.5991 13.0257 12.598C13.3026 12.5889 13.4622 12.426 13.4633 12.1469C13.4647 11.6866 13.464 11.2264 13.4633 10.7661C13.4633 10.7311 13.4582 10.696 13.4545 10.6456C13.3851 10.6456 13.3226 10.6456 13.2598 10.6456C12.1844 10.6441 11.1086 10.6627 10.034 10.6361C8.98084 10.6098 8.12424 9.70241 8.10853 8.64928C8.09173 7.49242 9.00239 6.56459 10.1618 6.56203C11.2054 6.55984 12.2487 6.56167 13.2923 6.56167C13.3453 6.56167 13.3986 6.56167 13.4636 6.56167C13.4636 6.49591 13.4636 6.44697 13.4636 6.39765C13.4636 5.89648 13.4636 5.3953 13.4636 4.89413C13.4636 4.51569 13.3237 4.37615 12.9446 4.37615C9.43599 4.37615 5.9274 4.37542 2.41882 4.37761C2.08531 4.37798 1.76642 4.32501 1.46506 4.18109C1.38834 4.14419 1.31456 4.10182 1.22031 4.05178ZM12.0094 3.498C12.0094 3.43663 12.0094 3.38805 12.0094 3.33947C12.0094 2.87007 12.0094 2.40068 12.0094 1.93165C12.0094 1.54225 11.8706 1.40198 11.4852 1.40162C8.46871 1.40162 5.45217 1.40125 2.43599 1.40235C2.33627 1.40235 2.23435 1.40491 2.13645 1.42317C1.71053 1.50244 1.41976 1.75193 1.27949 2.15849C1.14287 2.55446 1.27364 2.89455 1.55382 3.18093C1.77518 3.40704 2.05572 3.49873 2.37097 3.49837C5.53326 3.49727 8.69555 3.49764 11.8578 3.49764C11.9024 3.498 11.947 3.498 12.0094 3.498ZM13.4531 9.7667C13.4531 8.97877 13.4531 8.2124 13.4531 7.44274C12.3137 7.44274 11.1843 7.41753 10.0566 7.45187C9.31837 7.47415 8.83326 8.22044 9.03563 8.92873C9.18211 9.44123 9.63324 9.76523 10.21 9.76633C11.2434 9.76816 12.2768 9.7667 13.3106 9.7667C13.3555 9.7667 13.4005 9.7667 13.4531 9.7667Z" fill="#434343" stroke="#434343" stroke-width="0.3"/>
<path d="M10.9512 8.5973C10.9538 8.94908 10.6751 9.23619 10.3259 9.24131C9.97155 9.24679 9.67859 8.95857 9.67822 8.60461C9.67786 8.2554 9.96205 7.96938 10.3116 7.96682C10.6594 7.9639 10.9487 8.24919 10.9512 8.5973Z" fill="#434343" stroke="#434343" stroke-width="0.3"/>
</g>
<defs>
<clipPath id="clip0_1762_4177">
<rect width="14" height="12.9542" fill="white" transform="translate(0.341797 0.522949)"/>
</clipPath>
</defs>
</svg>
