<svg width="55" height="55" viewBox="0 0 55 55" fill="none" xmlns="http://www.w3.org/2000/svg">
<circle opacity="0.08" cx="27.5" cy="27.5" r="27" fill="#6792FF"/>
<path fill-rule="evenodd" clip-rule="evenodd" d="M15.501 16.8552C18.8553 16.5844 21.7768 15.0978 23.9852 13.5H31.0158C33.2243 15.0978 36.1458 16.5845 39.5 16.855V27.4841C39.5 34.3428 32.6322 40.1057 27.5 41.5C22.368 40.1058 15.5 34.3428 15.5 27.4847L15.501 16.8552ZM23.0822 26.3339L25.5671 29.523C25.8062 29.8299 26.2457 29.8823 26.5484 29.6398C26.5699 29.6226 26.5905 29.6043 26.6096 29.585L26.6116 29.5871L31.8677 24.2583C32.1417 23.9806 32.1417 23.5302 31.8677 23.2523C31.5937 22.9745 31.1494 22.9746 30.8754 23.2523L26.1749 28.018L24.1789 25.4563C23.9397 25.1493 23.5003 25.097 23.1975 25.3394C22.8944 25.5819 22.843 26.027 23.0821 26.3341L23.0822 26.3339ZM27.5009 19.2045C23.5706 19.2045 20.3843 22.4347 20.3843 26.4195C20.3843 30.4043 23.5704 33.6345 27.5009 33.6345C31.4314 33.6345 34.6176 30.4043 34.6176 26.4195C34.6176 22.4351 31.4312 19.2045 27.5009 19.2045Z" fill="#4673C6"/>
</svg>
